<svg width="15" height="17" viewBox="0 0 15 17" fill="none" xmlns="http://www.w3.org/2000/svg">
<g clip-path="url(#clip0_7_23)">
<path d="M7.68867 16.967C7.56042 17.0109 7.42034 17.0109 7.29209 16.967C0.0265415 14.498 0.140001 8.64901 0.223274 4.37701C0.231601 3.91801 0.239928 3.48401 0.239928 3.06501C0.238541 2.9087 0.301776 2.75825 0.41575 2.6467C0.529723 2.53514 0.685119 2.47159 0.847819 2.47001C3.44385 2.47001 5.41949 1.73801 7.06725 0.16801C7.12276 0.114523 7.1887 0.0720851 7.26131 0.043129C7.33392 0.0141728 7.41176 -0.000732422 7.49038 -0.000732422C7.569 -0.000732422 7.64684 0.0141728 7.71945 0.043129C7.79206 0.0720851 7.858 0.114523 7.91351 0.16801C9.56127 1.73801 11.538 2.47001 14.135 2.47001C14.2975 2.47186 14.4527 2.53552 14.5664 2.64705C14.6802 2.75858 14.7433 2.90887 14.7419 3.06501C14.7419 3.48501 14.7502 3.91801 14.7596 4.37701C14.8428 8.64801 14.9563 14.498 7.68971 16.967H7.68867ZM13.5459 4.40001C13.5407 4.14201 13.5355 3.89201 13.5334 3.64801C11.0997 3.54701 9.15531 2.82501 7.4909 1.40301C5.82545 2.82501 3.88207 3.54701 1.45051 3.64801L1.43697 4.40001C1.3537 8.69401 1.26002 13.555 7.4909 15.774C13.7228 13.554 13.6291 8.69401 13.5448 4.40001H13.5459ZM10.4398 6.43301C10.5539 6.54575 10.6177 6.69678 10.6177 6.85401C10.6177 7.01124 10.5539 7.16227 10.4398 7.27501L7.08078 10.567C7.02507 10.6223 6.95835 10.6663 6.88459 10.6963C6.81082 10.7264 6.73152 10.7419 6.65141 10.7419C6.57129 10.7419 6.49199 10.7264 6.41823 10.6963C6.34447 10.6663 6.27774 10.6223 6.22203 10.567L4.542 8.92001C4.42769 8.80739 4.3637 8.65631 4.3637 8.49901C4.3637 8.3417 4.42769 8.19063 4.542 8.07801C4.59779 8.02282 4.66454 7.97895 4.73829 7.94899C4.81204 7.91903 4.8913 7.9036 4.97138 7.9036C5.05146 7.9036 5.13072 7.91903 5.20447 7.94899C5.27822 7.97895 5.34497 8.02282 5.40075 8.07801L6.65089 9.30401L9.58105 6.43201C9.63683 6.37682 9.70358 6.33295 9.77733 6.30299C9.85109 6.27303 9.93035 6.2576 10.0104 6.2576C10.0905 6.2576 10.1698 6.27303 10.2435 6.30299C10.3173 6.33295 10.384 6.37682 10.4398 6.43201V6.43301Z" fill="#787878"/>
</g>
<defs>
<clipPath id="clip0_7_23">
<rect width="14.5727" height="17" fill="white" transform="translate(0.204529)"/>
</clipPath>
</defs>
</svg>
